<svg xmlns="http://www.w3.org/2000/svg" viewBox="0 0 512 512">
  <defs>
    <radialGradient id="bg" cx="50%" cy="40%" r="70%">
      <stop offset="0%" stop-color="#1d1b4a"/>
      <stop offset="60%" stop-color="#0a0b1f"/>
      <stop offset="100%" stop-color="#05060d"/>
    </radialGradient>
    <linearGradient id="moon" x1="0%" y1="0%" x2="100%" y2="100%">
      <stop offset="0%" stop-color="#e8e4ff"/>
      <stop offset="100%" stop-color="#8b7ff0"/>
    </linearGradient>
    <linearGradient id="wave" x1="0%" y1="0%" x2="100%" y2="0%">
      <stop offset="0%" stop-color="#6a6aff" stop-opacity="0"/>
      <stop offset="50%" stop-color="#9d8cff"/>
      <stop offset="100%" stop-color="#6a6aff" stop-opacity="0"/>
    </linearGradient>
  </defs>
  <rect width="512" height="512" rx="112" fill="url(#bg)"/>
  <circle cx="140" cy="110" r="3" fill="#fff" opacity="0.7"/>
  <circle cx="380" cy="90" r="2" fill="#fff" opacity="0.5"/>
  <circle cx="420" cy="180" r="2" fill="#fff" opacity="0.6"/>
  <circle cx="90" cy="220" r="2" fill="#fff" opacity="0.4"/>
  <path d="M 330 130 A 110 110 0 1 0 390 290 A 90 90 0 1 1 330 130 Z"
        fill="url(#moon)"/>
  <g stroke="url(#wave)" stroke-width="10" stroke-linecap="round" fill="none">
    <path d="M 70 380 Q 130 340 190 380 T 310 380 T 442 380"/>
    <path d="M 70 420 Q 130 390 190 420 T 310 420 T 442 420" opacity="0.55"/>
  </g>
</svg>
